<svg width="1485" height="1389" viewBox="0 0 1485 1389" version="1.1" xmlns="http://www.w3.org/2000/svg" xmlns:xlink="http://www.w3.org/1999/xlink">
<title>contenta logo</title>
<desc>Created using Figma</desc>
<g id="Canvas" transform="matrix(3 0 0 3 -5793 -8427)">
<g id="contenta logo">
<g id="symbol">
<g id="Vector">
<use xlink:href="#path0_fill" transform="matrix(0.707093 -0.707107 0.707093 0.707107 1987.09 3028.46)" fill="#2AABDD"/>
</g>
<g id="Vector">
<use xlink:href="#path1_fill" transform="matrix(0.707093 -0.707107 0.707093 0.707107 1950.44 3028.46)" fill="#212D35"/>
</g>
<g id="Group">
<g id="Group">
<g id="Vector">
<use xlink:href="#path2_fill" transform="translate(2053.79 2943.7)" fill="#FFFFFF"/>
</g>
<g id="Vector">
<use xlink:href="#path3_fill" transform="translate(2233.4 2942.18)" fill="#FFFFFF"/>
</g>
</g>
<g id="Group">
<g id="Vector">
<use xlink:href="#path4_fill" transform="translate(2127.92 3022.82)" fill="#FFFFFF"/>
</g>
<g id="Group">
<g id="Vector">
<use xlink:href="#path5_fill" transform="translate(2135.25 2959.69)" fill="#FFFFFF"/>
</g>
<g id="Vector">
<use xlink:href="#path6_fill" transform="translate(2184.53 2959.69)" fill="#FFFFFF"/>
</g>
</g>
</g>
</g>
</g>
<g id="logotype">
<g id="contenta">
<g id="Vector">
<use xlink:href="#path7_fill" transform="matrix(0.707099 0.707114 -0.7071 0.707114 1946.17 3046.43)" fill="#212D35"/>
</g>
<g id="Vector">
<use xlink:href="#path8_fill" transform="matrix(0.707099 0.707114 -0.7071 0.707114 1963.4 3063.26)" fill="#212D35"/>
</g>
<g id="Vector">
<use xlink:href="#path9_fill" transform="matrix(0.707099 0.707114 -0.7071 0.707114 1985.91 3085.97)" fill="#212D35"/>
</g>
<g id="Vector">
<use xlink:href="#path10_fill" transform="matrix(0.707099 0.707114 -0.7071 0.707114 2010.74 3100.46)" fill="#212D35"/>
</g>
<g id="Vector">
<use xlink:href="#path11_fill" transform="matrix(0.707099 0.707114 -0.7071 0.707114 2020.67 3121.14)" fill="#212D35"/>
</g>
<g id="Vector">
<use xlink:href="#path12_fill" transform="matrix(0.707099 0.707114 -0.7071 0.707114 2042.77 3142.83)" fill="#212D35"/>
</g>
<g id="Vector">
<use xlink:href="#path13_fill" transform="matrix(0.707099 0.707114 -0.7071 0.707114 2067.61 3157.33)" fill="#212D35"/>
</g>
<g id="Vector">
<use xlink:href="#path14_fill" transform="matrix(0.707099 0.707114 -0.7071 0.707114 2077.44 3177.5)" fill="#212D35"/>
</g>
</g>
<g id="cms">
<g id="Vector">
<use xlink:href="#path15_fill" transform="matrix(0.707099 0.707114 -0.7071 0.707114 2095.99 3197.87)" fill="#212D35"/>
</g>
<g id="Vector">
<use xlink:href="#path16_fill" transform="matrix(0.707099 0.707114 -0.7071 0.707114 2112.81 3214.5)" fill="#212D35"/>
</g>
<g id="Vector">
<use xlink:href="#path17_fill" transform="matrix(0.707099 0.707114 -0.7071 0.707114 2141.09 3243.39)" fill="#212D35"/>
</g>
</g>
</g>
</g>
</g>
<defs>
<path id="path0_fill" d="M 310.36 0L -3.10742e-06 0L -3.10742e-06 310.36L 310.36 310.36L 310.36 0Z"/>
<path id="path1_fill" d="M 310.36 0L 0 0L 0 310.36L 310.36 310.36L 310.36 0Z"/>
<path id="path2_fill" d="M 23.2157 5.39793C 18.7354 9.47093 16.2917 16.395 16.2917 25.3556L 16.2917 61.6054C 16.2917 67.3076 15.0698 70.9733 13.0333 73.4171C 10.9969 75.4536 7.33126 76.6755 2.85105 76.6755L -1.5537e-06 76.6755L -1.5537e-06 93.3748L 2.85105 93.3748C 7.33126 93.3748 10.5896 94.5967 13.0333 96.6332C 15.0698 98.6697 16.2917 102.743 16.2917 108.852L 16.2917 144.695C 16.2917 153.655 18.3281 160.172 22.8084 164.652C 27.2886 168.725 33.8053 171.169 41.9511 171.169L 52.948 171.169L 52.948 154.063L 41.9511 154.063C 39.5073 154.063 37.8782 153.655 36.249 152.433C 35.0271 151.619 34.2125 149.175 34.2125 145.917L 34.2125 109.667C 34.2125 102.335 32.5834 96.6332 29.7323 92.5602C 27.6959 89.7091 25.2521 87.6726 22.4011 86.0434C 25.6594 84.4142 28.1032 82.3777 29.7323 79.5266C 32.5834 75.0463 34.2125 69.3441 34.2125 62.0127L 34.2125 25.763C 34.2125 22.5045 35.0271 20.0607 35.8417 19.2461C 37.4709 18.0242 39.1 17.6169 41.1365 17.6169L 52.5407 17.6169L 52.5407 0.51032L 41.9511 0.51032C 34.2125 -1.11888 27.6959 1.32492 23.2157 5.39793Z"/>
<path id="path3_fill" d="M 49.6896 77.7944C 45.2094 77.7944 41.9511 76.5725 39.9146 74.536C 37.8782 72.4995 36.6563 68.4265 36.6563 62.317L 36.6563 26.4745C 36.6563 17.5139 34.6198 10.9971 30.1396 6.5168C 25.6594 2.4438 19.1427 3.10746e-06 10.9969 3.10746e-06L 0 3.10746e-06L 0 17.5139L 10.9969 17.5139C 13.4406 17.5139 15.0698 17.9212 16.699 19.1431C 17.9208 19.9577 18.7354 22.4015 18.7354 25.6599L 18.7354 62.317C 18.7354 69.6484 20.3646 75.3506 23.2156 79.4236C 25.2521 82.2747 27.6959 84.3112 30.5469 85.9404C 27.2886 87.5696 24.8448 89.6061 23.2156 92.4572C 20.3646 96.9375 18.7354 102.64 18.7354 109.971L 18.7354 146.221C 18.7354 149.479 17.9208 151.923 17.1063 152.738C 15.4771 153.96 13.8479 154.367 11.8115 154.367L 0.407286 154.367L 0.407286 171.474L 10.1823 171.474C 18.3281 171.474 24.8448 169.437 29.325 165.364C 33.8052 161.291 36.249 154.367 36.249 145.406L 36.249 109.157C 36.249 103.454 37.4709 99.7886 39.5073 97.3448C 41.5438 95.3083 45.2094 94.0864 49.6896 94.0864L 52.5407 94.0864L 52.5407 77.3871L 49.6896 77.3871L 49.6896 77.7944Z"/>
<path id="path4_fill" d="M 83.9022 0L -6.21478e-06 0L -6.21478e-06 32.1767C -6.21478e-06 55.3929 18.7354 74.1287 41.9511 74.1287C 65.1667 74.1287 83.9022 55.3929 83.9022 32.1767C 83.9022 32.1767 83.9022 0 83.9022 0Z"/>
<path id="path5_fill" d="M 9.77501 0C 4.48021 0 6.21478e-06 4.48031 6.21478e-06 9.77522L 6.21478e-06 47.2469L 19.1427 47.2469L 19.1427 9.77522C 19.55 4.48031 15.0698 0 9.77501 0Z"/>
<path id="path6_fill" d="M 9.77502 0C 4.48022 0 0 4.48031 0 9.77522L 0 47.2469L 19.1427 47.2469L 19.1427 9.77522C 19.55 4.48031 15.0698 0 9.77502 0Z"/>
<path id="path7_fill" d="M 19.6393 21.2161C 20.0693 21.9329 20.356 22.793 20.6427 23.6531C 20.9294 24.5132 21.0728 25.6601 21.0728 26.9502C 19.6393 27.5236 18.3491 27.8103 17.2023 28.097C 15.9121 28.2404 14.7653 28.3837 13.3318 28.3837C 11.0381 28.3837 9.03118 27.9537 7.45431 27.2369C 5.73408 26.5202 4.44392 25.5167 3.2971 24.2265C 2.15028 22.9364 1.43353 21.5028 0.860118 19.7826C 0.286709 18.0624 -4.37476e-06 16.1988 -4.37476e-06 14.1919C -4.37476e-06 12.1849 0.286709 10.3214 0.860118 8.60114C 1.43353 6.88091 2.29364 5.44739 3.2971 4.15722C 4.44392 2.86705 5.73408 1.86358 7.45431 1.14682C 9.03118 0.430056 11.0381 0 13.1884 0C 13.9052 0 14.6219 0 15.3387 0C 16.0554 0 16.6289 0.14335 17.2023 0.14335C 17.7757 0.286702 18.3491 0.430059 18.9225 0.573411C 19.4959 0.716764 20.2127 1.00347 20.9294 1.29017C 20.9294 2.15029 20.7861 3.0104 20.6427 4.01386C 20.4994 5.01733 20.0693 6.02079 19.6393 6.88091C 18.6358 6.5942 17.6323 6.3075 16.9156 6.16415C 16.1988 6.02079 15.1953 6.0208 14.1919 6.0208C 12.0416 6.0208 10.3214 6.73756 9.31789 8.17108C 8.17107 9.6046 7.59767 11.6115 7.59767 14.1919C 7.59767 17.0589 8.17107 19.0659 9.31789 20.356C 10.4647 21.6462 12.185 22.363 14.1919 22.363C 14.7653 22.363 15.1953 22.363 15.6254 22.363C 16.0555 22.363 16.4855 22.363 16.9156 22.2196C 17.3456 22.0762 17.7757 22.0762 18.2057 21.9329C 18.6358 21.6462 19.0658 21.5028 19.6393 21.2161Z"/>
<path id="path8_fill" d="M 13.0451 28.5271C 10.8948 28.5271 8.88785 28.097 7.31098 27.3803C 5.7341 26.6635 4.30057 25.6601 3.29711 24.3699C 2.29364 23.0797 1.43353 21.6462 0.860122 19.926C 0.286713 18.2057 0 16.3422 0 14.3352C 0 12.3283 0.286713 10.4647 0.860122 8.74449C 1.43353 7.02426 2.15029 5.44739 3.29711 4.15722C 4.30057 2.86705 5.7341 1.86358 7.31098 1.14682C 8.88785 0.430055 10.8948 -1.09369e-06 13.0451 -1.09369e-06C 15.1954 -1.09369e-06 17.2023 0.430055 18.7792 1.14682C 20.356 1.86358 21.7895 2.86705 22.9364 4.15722C 24.0832 5.44739 24.7999 6.88091 25.3733 8.74449C 25.9468 10.6081 26.0901 12.3283 26.0901 14.3352C 26.0901 16.3422 25.8034 18.2057 25.3733 19.926C 24.9433 21.6462 24.0832 23.0797 22.9364 24.3699C 21.7895 25.6601 20.4994 26.6635 18.7792 27.3803C 17.0589 28.097 15.1954 28.5271 13.0451 28.5271ZM 13.0451 22.9364C 15.052 22.9364 16.3422 22.2196 17.2023 20.7861C 18.0624 19.3526 18.4924 17.2023 18.4924 14.4786C 18.4924 11.7549 18.0624 9.6046 17.2023 8.17108C 16.3422 6.73756 14.9086 6.0208 13.0451 6.0208C 11.1815 6.0208 9.74795 6.73756 8.88784 8.17108C 8.02772 9.6046 7.59768 11.7549 7.59768 14.4786C 7.59768 17.2023 8.02772 19.3526 8.88784 20.7861C 9.74795 22.2196 11.1815 22.9364 13.0451 22.9364Z"/>
<path id="path9_fill" d="M 4.37476e-06 0.716764C 0.430061 0.573411 1.00347 0.57341 1.43353 0.430058C 1.86358 0.430058 2.43698 0.286702 3.01039 0.286702C 3.5838 0.286702 4.15722 0.286706 4.58727 0.430058C 5.01733 0.430058 5.44739 0.573411 6.0208 0.716764C 6.16415 0.860116 6.16414 1.14682 6.3075 1.43352C 6.45085 1.72023 6.45084 2.15028 6.5942 2.43699C 6.73755 2.72369 6.73756 3.15375 6.73756 3.58381C 6.73756 3.87051 6.88092 4.30057 6.88092 4.44392C 7.16762 3.87051 7.59767 3.44046 8.17108 2.86705C 8.74449 2.29364 9.17454 1.86358 9.8913 1.43352C 10.6081 1.00347 11.3248 0.716762 12.0416 0.430058C 12.9017 0.143353 13.7618 2.18738e-06 14.7653 2.18738e-06C 17.7757 2.18738e-06 20.2127 0.860115 21.7895 2.58034C 23.3664 4.30057 24.0832 6.88091 24.0832 10.4647L 24.0832 27.8103C 22.793 27.9537 21.6462 28.097 20.356 28.097C 19.0659 28.097 17.919 27.9537 16.6289 27.8103L 16.6289 12.4716C 16.6289 10.6081 16.3422 9.17454 15.7688 8.17108C 15.1953 7.16761 14.1919 6.5942 12.7583 6.5942C 12.1849 6.5942 11.6115 6.73756 10.8948 6.88091C 10.178 7.02426 9.74795 7.45432 9.17454 7.88438C 8.60113 8.45779 8.31444 9.03119 7.88438 10.0347C 7.45432 11.0381 7.45432 12.1849 7.45432 13.6185L 7.45432 27.8103C 6.16415 27.9537 5.01732 28.097 3.72715 28.097C 2.43698 28.097 1.29017 27.9537 4.37476e-06 27.8103L 4.37476e-06 0.716764L 4.37476e-06 0.716764Z"/>
<path id="path10_fill" d="M 3.72716 13.6185L 0.286696 13.6185L -4.37476e-06 12.615L 9.74796 -1.09369e-06L 10.8948 -1.09369e-06L 10.8948 7.88437L 17.2023 7.88437C 17.3456 8.45778 17.3456 8.88784 17.3456 9.3179C 17.3456 9.74795 17.3456 10.178 17.3456 10.6081C 17.3456 11.0381 17.3456 11.6115 17.3456 12.0416C 17.3456 12.4716 17.2023 13.0451 17.2023 13.6185L 10.8948 13.6185L 10.8948 24.2265C 10.8948 25.3734 11.0381 26.2335 11.1815 26.8069C 11.3248 27.5236 11.6115 27.9537 11.8982 28.3837C 12.1849 28.8138 12.615 29.1005 13.1884 29.1005C 13.6185 29.2439 14.1919 29.2439 14.9086 29.2439C 15.4821 29.2439 15.9121 29.2439 16.4855 29.1005C 17.0589 28.9572 17.489 28.9572 17.7757 28.8138C 18.0624 29.5306 18.2057 30.104 18.3491 30.8207C 18.4924 31.5375 18.4925 32.1109 18.4925 32.6843C 18.4925 33.1144 18.4925 33.4011 18.4925 33.6878C 18.4925 33.9745 18.4924 34.2612 18.3491 34.4045C 16.7722 34.8346 15.052 34.978 13.3318 34.978C 10.178 34.978 7.74101 34.2612 6.02079 32.6843C 4.30056 31.2508 3.44046 28.8138 3.44046 25.3734L 3.44046 13.6185L 3.72716 13.6185Z"/>
<path id="path11_fill" d="M 7.45432 16.1988C 7.59767 18.3491 8.31443 19.7826 9.6046 20.7861C 10.8948 21.7895 12.615 22.2196 14.9086 22.2196C 16.0555 22.2196 17.3456 22.0763 18.4924 21.9329C 19.7826 21.6462 20.9294 21.3595 22.0762 20.9294C 22.5063 21.6462 22.793 22.5063 23.0797 23.5098C 23.3664 24.5132 23.5098 25.5167 23.5098 26.6635C 20.7861 27.667 17.6323 28.2404 14.3352 28.2404C 11.7549 28.2404 9.60461 27.9537 7.88438 27.2369C 6.16415 26.5202 4.58727 25.5167 3.44045 24.3699C 2.29363 23.0797 1.43351 21.6462 0.860105 19.926C 0.286696 18.2057 4.37476e-06 16.3422 4.37476e-06 14.3352C 4.37476e-06 12.3283 0.286696 10.4647 0.860105 8.74449C 1.43351 7.02426 2.29365 5.44739 3.29711 4.15722C 4.44393 2.86705 5.73409 1.86358 7.45432 1.14682C 9.03119 0.430059 11.0381 -2.18738e-06 13.1884 -2.18738e-06C 15.052 -2.18738e-06 16.7722 0.286703 18.2057 1.00346C 19.6393 1.72023 20.9294 2.58034 21.9329 3.72716C 22.9364 4.87398 23.7965 6.3075 24.2265 7.88437C 24.7999 9.46125 24.9433 11.1815 24.9433 13.0451C 24.9433 13.7618 24.9433 14.3352 24.8 15.052C 24.8 15.7687 24.6566 16.1988 24.6566 16.6289L 7.45432 16.6289L 7.45432 16.1988ZM 18.0624 11.0381C 18.0624 9.3179 17.489 8.02773 16.6289 7.02426C 15.7687 6.0208 14.6219 5.44739 13.045 5.44739C 11.3248 5.44739 10.0347 5.87745 9.0312 6.88091C 8.17109 7.88438 7.59767 9.17454 7.45432 11.0381L 18.0624 11.0381Z"/>
<path id="path12_fill" d="M -8.74953e-06 0.716764C 0.430048 0.573411 1.00346 0.57341 1.43351 0.430058C 1.86357 0.430058 2.43699 0.286702 3.0104 0.286702C 3.58381 0.286702 4.15722 0.286706 4.58728 0.430058C 5.01734 0.430058 5.4474 0.573411 6.0208 0.716764C 6.16416 0.860116 6.16415 1.14682 6.3075 1.43352C 6.45086 1.72023 6.45085 2.15028 6.5942 2.43699C 6.73756 2.72369 6.73757 3.15375 6.73757 3.58381C 6.73757 3.87051 6.88091 4.30057 6.88091 4.44392C 7.16761 3.87051 7.59768 3.44046 8.17109 2.86705C 8.7445 2.29364 9.17455 1.86358 9.89131 1.43352C 10.6081 1.00347 11.3248 0.716762 12.0416 0.430058C 12.9017 0.143353 13.7618 2.18738e-06 14.7653 2.18738e-06C 17.7757 2.18738e-06 20.2127 0.860115 21.7896 2.58034C 23.3664 4.30057 24.0832 6.88091 24.0832 10.4647L 24.0832 27.8103C 22.793 27.9537 21.6462 28.097 20.356 28.097C 19.0659 28.097 17.919 27.9537 16.6289 27.8103L 16.6289 12.4716C 16.6289 10.6081 16.3422 9.17454 15.7687 8.17108C 15.1953 7.16761 14.1919 6.5942 12.7584 6.5942C 12.1849 6.5942 11.6115 6.73756 10.8948 6.88091C 10.178 7.02426 9.74796 7.45432 9.17455 7.88438C 8.60114 8.45779 8.31442 9.03119 7.88437 10.0347C 7.45431 11.0381 7.45433 12.1849 7.45433 13.6185L 7.45433 27.8103C 6.16416 27.9537 5.01733 28.097 3.72716 28.097C 2.43699 28.097 1.29016 27.9537 -8.74953e-06 27.8103L -8.74953e-06 0.716764L -8.74953e-06 0.716764Z"/>
<path id="path13_fill" d="M 3.72715 13.6185L 0.286705 13.6185L 4.37476e-06 12.615L 9.74796 -1.09369e-06L 10.8948 -1.09369e-06L 10.8948 7.88437L 17.2023 7.88437C 17.3456 8.45778 17.3456 8.88784 17.3456 9.3179C 17.3456 9.74795 17.3456 10.178 17.3456 10.6081C 17.3456 11.0381 17.3456 11.6115 17.3456 12.0416C 17.3456 12.4716 17.2023 13.0451 17.2023 13.6185L 10.8948 13.6185L 10.8948 24.2265C 10.8948 25.3734 11.0381 26.2335 11.1815 26.8069C 11.3248 27.5236 11.6115 27.9537 11.8982 28.3837C 12.185 28.8138 12.615 29.1005 13.1884 29.1005C 13.6185 29.2439 14.1919 29.2439 14.9086 29.2439C 15.482 29.2439 15.9121 29.2439 16.4855 29.1005C 17.0589 28.9572 17.489 28.9572 17.7757 28.8138C 18.0624 29.5306 18.2057 30.104 18.3491 30.8207C 18.4925 31.5375 18.4924 32.1109 18.4924 32.6843C 18.4924 33.1144 18.4924 33.4011 18.4924 33.6878C 18.4924 33.9745 18.4925 34.2612 18.3491 34.4045C 16.7722 34.8346 15.052 34.978 13.3318 34.978C 10.178 34.978 7.74102 34.2612 6.0208 32.6843C 4.30057 31.2508 3.44045 28.8138 3.44045 25.3734L 3.44045 13.6185L 3.72715 13.6185Z"/>
<path id="path14_fill" d="M 15.482 9.89131C 15.482 9.03119 15.3387 8.31443 15.052 7.88438C 14.7653 7.31097 14.3352 6.88091 13.9052 6.5942C 13.4751 6.3075 12.7584 6.16415 12.0416 6.02079C 11.3248 5.87744 10.4647 5.87744 9.60458 5.87744C 7.74101 5.87744 5.7341 6.3075 3.58382 7.02426C 3.15376 6.16415 2.72368 5.30403 2.43697 4.44392C 2.15027 3.58381 2.00693 2.72369 2.00693 1.57688C 3.58381 1.00347 5.01735 0.716762 6.59422 0.430058C 8.1711 0.143353 9.60462 2.18738e-06 10.8948 2.18738e-06C 14.4786 2.18738e-06 17.3456 0.860115 19.3526 2.58034C 21.3595 4.30057 22.363 7.16761 22.363 11.0381L 22.363 26.8069C 21.0728 27.2369 19.6393 27.5236 17.919 27.9537C 16.1988 28.2404 14.1919 28.5271 12.0416 28.5271C 10.3214 28.5271 8.60115 28.3838 7.16762 28.097C 5.7341 27.8103 4.44391 27.2369 3.29709 26.5202C 2.29363 25.8034 1.43354 24.7999 0.860131 23.6531C 0.286722 22.5063 8.74953e-06 21.0728 8.74953e-06 19.3526C 8.74953e-06 17.6323 0.286696 16.1988 1.14681 15.1953C 1.86357 14.0485 2.72368 13.1884 3.87049 12.4716C 5.01731 11.7549 6.3075 11.3248 7.74102 11.0381C 9.17455 10.7514 10.6081 10.6081 11.8982 10.6081C 12.9017 10.6081 14.0485 10.6081 15.1954 10.7514L 15.1954 9.89131L 15.482 9.89131ZM 15.482 15.3387C 15.052 15.3387 14.6219 15.1953 14.0485 15.1953C 13.6185 15.1953 13.1884 15.052 12.7584 15.052C 11.0381 15.052 9.74797 15.3387 8.74451 15.9121C 7.74104 16.4855 7.31098 17.489 7.31098 18.9225C 7.31098 19.7826 7.45433 20.4994 7.88438 21.0728C 8.31444 21.5028 8.7445 21.9329 9.31791 22.2196C 9.89132 22.5063 10.4647 22.6497 11.0381 22.6497C 11.6115 22.6497 12.1849 22.793 12.615 22.793C 13.1884 22.793 13.6185 22.793 14.1919 22.6497C 14.7653 22.5063 15.1953 22.5063 15.6254 22.363L 15.6254 15.3387L 15.482 15.3387Z"/>
<path id="path15_fill" d="M 3.29711 3.87051C 2.29365 5.01733 1.43351 6.45085 0.860105 8.17108C 0.286696 9.89131 -1.74991e-05 11.6115 -1.74991e-05 13.6185C -1.74991e-05 17.7757 1.14683 21.0728 3.29711 23.5098C 5.4474 25.9468 8.74448 27.0936 13.045 27.0936C 15.482 27.0936 17.6323 26.8069 19.4959 26.0901C 19.4959 25.5167 19.3526 24.9433 19.2092 24.3699C 19.0659 23.9398 18.9225 23.3664 18.7791 23.0797C 17.919 23.3664 17.2023 23.5098 16.4855 23.6531C 15.6254 23.7965 14.622 23.9398 13.4751 23.9398C 10.7514 23.9398 8.45779 23.0797 6.88092 21.5028C 5.30404 19.7826 4.44391 17.2023 4.44391 13.7618C 4.44391 10.7514 5.16067 8.17108 6.5942 6.3075C 8.02772 4.44392 10.178 3.44046 13.045 3.44046C 15.052 3.44046 16.9156 3.72716 18.6358 4.15722C 18.7791 3.72716 18.9225 3.15375 19.0659 2.58034C 19.2092 2.00693 19.2092 1.43352 19.2092 1.00347C 18.3491 0.716761 17.489 0.430057 16.4855 0.286705C 15.3387 0.143352 14.0485 -1.09369e-06 12.615 -1.09369e-06C 10.4647 -1.09369e-06 8.74447 0.286705 7.1676 1.00347C 5.73407 1.72023 4.30058 2.72369 3.29711 3.87051Z"/>
<path id="path16_fill" d="M 32.8277 26.8069C 33.6878 26.8069 34.4045 26.8069 35.408 26.8069C 35.6947 26.8069 35.9814 26.8069 36.2681 26.6635L 36.2681 9.8913C 36.2681 6.5942 35.5514 4.15722 34.2612 2.43699C 32.971 0.860116 30.8208 1.09369e-06 27.8104 1.09369e-06C 26.8069 1.09369e-06 25.9468 0.143352 25.23 0.430057C 24.5132 0.716761 23.7965 1.00347 23.2231 1.43352C 22.6497 1.86358 22.0762 2.29364 21.6462 2.86705C 21.2161 3.44046 20.7861 4.01387 20.356 4.58727L 19.7826 5.59074L 19.3525 4.58727C 18.7791 3.15375 17.919 2.00693 16.9156 1.29017C 15.9121 0.573407 14.3352 0.143351 12.3283 0.143351C 11.3248 0.143351 10.4647 0.286702 9.74796 0.573407C 9.0312 0.860111 8.31444 1.14682 7.59768 1.57687C 7.02427 2.00693 6.45085 2.43699 6.0208 3.0104C 5.59074 3.58381 5.1607 4.15722 4.87399 4.73062L 3.87051 6.73756L 3.87051 4.44392C 3.87051 3.87051 3.8705 3.15375 3.72715 2.29364C 3.5838 1.57687 3.58382 1.14682 3.44047 0.573407C 3.15377 0.573407 3.01042 0.573409 2.72371 0.430057C 2.1503 0.430057 1.29019 0.430057 0.573427 0.430057C 0.430074 0.430057 0.143335 0.430055 -1.74991e-05 0.573407L -1.74991e-05 26.5202C 0.286687 26.5202 0.5734 26.5202 0.860105 26.6635C 1.86357 26.6635 2.43701 26.6635 3.44047 26.6635C 3.72718 26.6635 4.01388 26.6635 4.15723 26.5202L 4.15723 13.3318C 4.15723 11.7549 4.30058 10.3214 4.73063 9.17454C 5.01734 7.88437 5.59075 6.88091 6.16416 6.0208C 6.73757 5.16068 7.59768 4.58727 8.31444 4.15721C 9.0312 3.72716 10.0347 3.58381 11.0381 3.58381C 12.7584 3.58381 14.0485 4.30057 14.9087 5.59074C 15.6254 6.88091 16.0555 8.74449 16.0555 11.1815L 16.0555 26.6635C 16.3422 26.6635 16.6289 26.6635 16.7722 26.8069C 17.6323 26.8069 18.3491 26.8069 19.2092 26.8069C 19.4959 26.8069 19.7826 26.8069 19.926 26.6635L 19.926 11.8982C 19.926 9.3179 20.4994 7.16761 21.6462 5.87744C 22.793 4.44392 24.5133 3.72716 26.3768 3.72716C 28.2404 3.72716 29.6739 4.44392 30.3907 5.73409C 31.1074 7.02426 31.5375 8.88784 31.5375 11.4682L 31.5375 26.6635C 32.2542 26.6635 32.541 26.6635 32.8277 26.8069Z"/>
<path id="path17_fill" d="M 17.2023 21.9329C 17.6323 20.9294 17.919 19.7826 17.919 18.6358C 17.919 17.489 17.7757 16.6289 17.489 15.9121C 17.2023 15.1953 16.7722 14.4786 16.3422 14.0485C 15.9121 13.4751 15.1953 13.0451 14.4786 12.7584C 13.7618 12.3283 13.0451 12.0416 12.1849 11.7549L 9.8913 11.0381C 9.31789 10.8948 8.60115 10.6081 8.1711 10.4647C 7.59769 10.178 7.02427 9.89131 6.59421 9.6046C 6.16416 9.3179 5.73407 8.88784 5.44737 8.31443C 5.16066 7.88437 5.01733 7.16761 5.01733 6.5942C 5.01733 5.30403 5.59072 4.30057 6.88089 3.72716C 8.88782 2.72369 11.7549 2.86705 14.0485 3.44046C 14.9086 3.58381 15.7687 3.87051 16.3422 4.15722C 16.4855 3.72716 16.6289 3.2971 16.7722 2.7237C 16.9156 2.15029 17.0589 1.72023 17.0589 1.14682C 16.1988 0.860113 15.1953 0.573408 14.0485 0.430056C 12.7583 0.143351 11.4682 0 10.178 0C 7.02427 0 4.58728 0.716764 3.01041 2.00693C 1.43353 3.2971 0.716761 5.01733 0.716761 7.31096C 0.716761 9.03119 1.14682 10.178 2.15028 11.1815C 3.15375 12.1849 4.73061 13.0451 6.88089 13.9052L 8.7445 14.6219C 9.46126 14.7653 10.0347 15.052 10.6081 15.3387C 11.1815 15.6254 11.7549 15.9121 12.1849 16.1988C 12.615 16.6289 13.045 17.0589 13.3317 17.489C 13.6184 18.0624 13.7618 18.6358 13.7618 19.4959C 13.7618 20.2127 13.6185 20.9294 13.1884 21.5028C 12.7584 22.0762 12.3283 22.5063 11.7549 22.9364C 11.1815 23.3664 10.4647 23.6531 9.60462 23.7965C 7.74104 24.2265 5.7341 24.0832 3.72717 23.6531C 2.7237 23.5098 1.8636 23.2231 1.00348 22.9364C 0.860131 23.5098 0.573392 23.9398 0.430039 24.5132C 0.286687 25.0866 0.143352 25.5167 0 26.0901C 1.00347 26.3768 2.00694 26.6635 3.01041 26.8069C 4.30058 27.0936 5.7341 27.0936 7.31097 27.0936C 8.88785 27.0936 10.3214 26.9502 11.6115 26.5202C 12.9017 26.0901 14.0485 25.5167 14.9086 24.7999C 16.0554 23.7965 16.7722 22.9364 17.2023 21.9329Z"/>
</defs>
</svg>
