<svg width="351" height="351" viewBox="0 0 351 351" version="1.1" xmlns="http://www.w3.org/2000/svg" xmlns:xlink="http://www.w3.org/1999/xlink">
<title>Frame</title>
<desc>Created using Figma</desc>
<g id="Canvas" transform="matrix(3 0 0 3 -5673 399)">
<clipPath id="clip-0" clip-rule="evenodd">
<path d="M 1891 -133L 2008 -133L 2008 -16L 1891 -16L 1891 -133Z" fill="#FFFFFF"/>
</clipPath>
<g id="Frame" clip-path="url(#clip-0)">
<g id="symbol">
<g id="Vector">
<use xlink:href="#path0_fill" transform="matrix(0.7071 -0.7071 0.7071 0.7071 1900 -75.1189)" fill="#2AABDD"/>
</g>
<g id="Vector">
<use xlink:href="#path0_fill" transform="matrix(0.7071 -0.7071 0.7071 0.7071 1891 -75.119)" fill="#FFFFFF"/>
</g>
<g id="Group">
<g id="Group">
<g id="Vector">
<use xlink:href="#path1_fill" transform="translate(1916.38 -95.9278)" fill="#212D35"/>
</g>
<g id="Vector">
<use xlink:href="#path2_fill" transform="translate(1960.47 -96.3025)" fill="#212D35"/>
</g>
</g>
<g id="Group">
<g id="Vector">
<use xlink:href="#path3_fill" transform="translate(1934.57 -76.5025)" fill="#212D35"/>
</g>
<g id="Group">
<g id="Vector">
<use xlink:href="#path4_fill" transform="translate(1936.38 -92.0025)" fill="#212D35"/>
</g>
<g id="Vector">
<use xlink:href="#path5_fill" transform="translate(1948.47 -92.0025)" fill="#212D35"/>
</g>
</g>
</g>
</g>
</g>
</g>
</g>
<defs>
<path id="path0_fill" d="M 76.2 0L 0 0L 0 76.2L 76.2 76.2L 76.2 0Z"/>
<path id="path1_fill" d="M 5.7 1.32529C 4.6 2.32529 4 4.02529 4 6.22529L 4 15.1253C 4 16.5253 3.7 17.4253 3.2 18.0253C 2.7 18.5253 1.8 18.8253 0.7 18.8253L -3.8147e-07 18.8253L -3.8147e-07 22.9253L 0.7 22.9253C 1.8 22.9253 2.6 23.2253 3.2 23.7253C 3.7 24.2253 4 25.2253 4 26.7253L 4 35.5253C 4 37.7253 4.5 39.3253 5.6 40.4253C 6.7 41.4253 8.3 42.0253 10.3 42.0253L 13 42.0253L 13 37.8253L 10.3 37.8253C 9.7 37.8253 9.3 37.7253 8.9 37.4253C 8.6 37.2253 8.4 36.6253 8.4 35.8253L 8.4 26.9253C 8.4 25.1253 8 23.7253 7.3 22.7253C 6.8 22.0253 6.2 21.5253 5.5 21.1253C 6.3 20.7253 6.9 20.2253 7.3 19.5253C 8 18.4253 8.4 17.0253 8.4 15.2253L 8.4 6.32529C 8.4 5.52529 8.6 4.92529 8.8 4.72529C 9.2 4.42529 9.6 4.32529 10.1 4.32529L 12.9 4.32529L 12.9 0.125293L 10.3 0.125293C 8.4 -0.274707 6.8 0.325294 5.7 1.32529Z"/>
<path id="path2_fill" d="M 12.2 19.1C 11.1 19.1 10.3 18.8 9.8 18.3C 9.3 17.8 9 16.8 9 15.3L 9 6.5C 9 4.3 8.5 2.7 7.4 1.6C 6.3 0.599999 4.7 7.62939e-07 2.7 7.62939e-07L 0 7.62939e-07L 0 4.3L 2.7 4.3C 3.3 4.3 3.7 4.4 4.1 4.7C 4.4 4.9 4.6 5.5 4.6 6.3L 4.6 15.3C 4.6 17.1 5 18.5 5.7 19.5C 6.2 20.2 6.8 20.7 7.5 21.1C 6.7 21.5 6.1 22 5.7 22.7C 5 23.8 4.6 25.2 4.6 27L 4.6 35.9C 4.6 36.7 4.4 37.3 4.2 37.5C 3.8 37.8 3.4 37.9 2.9 37.9L 0.0999985 37.9L 0.0999985 42.1L 2.5 42.1C 4.5 42.1 6.1 41.6 7.2 40.6C 8.3 39.6 8.9 37.9 8.9 35.7L 8.9 26.8C 8.9 25.4 9.2 24.5 9.7 23.9C 10.2 23.4 11.1 23.1 12.2 23.1L 12.9 23.1L 12.9 19L 12.2 19L 12.2 19.1Z"/>
<path id="path3_fill" d="M 20.6 0L -1.52588e-06 0L -1.52588e-06 7.9C -1.52588e-06 13.6 4.6 18.2 10.3 18.2C 16 18.2 20.6 13.6 20.6 7.9C 20.6 7.9 20.6 0 20.6 0Z"/>
<path id="path4_fill" d="M 2.4 0C 1.1 0 1.52588e-06 1.1 1.52588e-06 2.4L 1.52588e-06 11.6L 4.7 11.6L 4.7 2.4C 4.8 1.1 3.7 0 2.4 0Z"/>
<path id="path5_fill" d="M 2.4 0C 1.1 0 0 1.1 0 2.4L 0 11.6L 4.7 11.6L 4.7 2.4C 4.8 1.1 3.7 0 2.4 0Z"/>
</defs>
</svg>
